<?xml version="1.0" encoding="UTF-8" standalone="no"?>
<!DOCTYPE svg PUBLIC "-//W3C//DTD SVG 1.1//EN"
 "http://www.w3.org/Graphics/SVG/1.1/DTD/svg11.dtd">
<!-- Generated by graphviz version 2.30.1 (20130221.2233)
 -->
<!-- Title: G Pages: 1 -->
<svg width="793pt" height="1738pt"
 viewBox="0.00 0.00 793.00 1738.00" xmlns="http://www.w3.org/2000/svg" xmlns:xlink="http://www.w3.org/1999/xlink">
<g id="graph0" class="graph" transform="scale(1 1) rotate(0) translate(4 1734)">
<title>G</title>
<polygon fill="white" stroke="white" points="-4,5 -4,-1734 790,-1734 790,5 -4,5"/>
<g id="clust1" class="cluster"><title>cluster_Global</title>
<path fill="none" stroke="gray" d="M20,-98C20,-98 765,-98 765,-98 771,-98 777,-104 777,-110 777,-110 777,-1710 777,-1710 777,-1716 771,-1722 765,-1722 765,-1722 20,-1722 20,-1722 14,-1722 8,-1716 8,-1710 8,-1710 8,-110 8,-110 8,-104 14,-98 20,-98"/>
<text text-anchor="middle" x="392.5" y="-1709.2" font-family="Times,serif" font-size="11.00" fill="gray">\</text>
</g>
<g id="clust2" class="cluster"><title>cluster_\s3c3</title>
<path fill="none" stroke="gray" d="M28,-106C28,-106 757,-106 757,-106 763,-106 769,-112 769,-118 769,-118 769,-1682 769,-1682 769,-1688 763,-1694 757,-1694 757,-1694 28,-1694 28,-1694 22,-1694 16,-1688 16,-1682 16,-1682 16,-118 16,-118 16,-112 22,-106 28,-106"/>
<text text-anchor="middle" x="392.5" y="-1681.2" font-family="Times,serif" font-size="11.00" fill="gray">s3c3</text>
</g>
<g id="clust3" class="cluster"><title>cluster_\s3c3\client</title>
<path fill="none" stroke="gray" d="M309,-1594C309,-1594 696,-1594 696,-1594 702,-1594 708,-1600 708,-1606 708,-1606 708,-1654 708,-1654 708,-1660 702,-1666 696,-1666 696,-1666 309,-1666 309,-1666 303,-1666 297,-1660 297,-1654 297,-1654 297,-1606 297,-1606 297,-1600 303,-1594 309,-1594"/>
<text text-anchor="middle" x="502.5" y="-1653.2" font-family="Times,serif" font-size="11.00" fill="gray">client</text>
</g>
<g id="clust4" class="cluster"><title>cluster_\s3c3\conf</title>
<path fill="none" stroke="gray" d="M631,-1514C631,-1514 679,-1514 679,-1514 685,-1514 691,-1520 691,-1526 691,-1526 691,-1574 691,-1574 691,-1580 685,-1586 679,-1586 679,-1586 631,-1586 631,-1586 625,-1586 619,-1580 619,-1574 619,-1574 619,-1526 619,-1526 619,-1520 625,-1514 631,-1514"/>
<text text-anchor="middle" x="655" y="-1573.2" font-family="Times,serif" font-size="11.00" fill="gray">conf</text>
</g>
<g id="clust5" class="cluster"><title>cluster_\s3c3\core</title>
<path fill="none" stroke="gray" d="M36,-304C36,-304 379,-304 379,-304 385,-304 391,-310 391,-316 391,-316 391,-714 391,-714 391,-720 385,-726 379,-726 379,-726 36,-726 36,-726 30,-726 24,-720 24,-714 24,-714 24,-316 24,-316 24,-310 30,-304 36,-304"/>
<text text-anchor="middle" x="207.5" y="-713.2" font-family="Times,serif" font-size="11.00" fill="gray">core</text>
</g>
<g id="clust6" class="cluster"><title>cluster_\s3c3\core\crypto</title>
<path fill="none" stroke="gray" d="M309,-572C309,-572 357,-572 357,-572 363,-572 369,-578 369,-584 369,-584 369,-686 369,-686 369,-692 363,-698 357,-698 357,-698 309,-698 309,-698 303,-698 297,-692 297,-686 297,-686 297,-584 297,-584 297,-578 303,-572 309,-572"/>
<text text-anchor="middle" x="333" y="-685.2" font-family="Times,serif" font-size="11.00" fill="gray">crypto</text>
</g>
<g id="clust7" class="cluster"><title>cluster_\s3c3\core\db</title>
<path fill="none" stroke="gray" d="M302,-492C302,-492 364,-492 364,-492 370,-492 376,-498 376,-504 376,-504 376,-552 376,-552 376,-558 370,-564 364,-564 364,-564 302,-564 302,-564 296,-564 290,-558 290,-552 290,-552 290,-504 290,-504 290,-498 296,-492 302,-492"/>
<text text-anchor="middle" x="333" y="-551.2" font-family="Times,serif" font-size="11.00" fill="gray">db</text>
</g>
<g id="clust8" class="cluster"><title>cluster_\s3c3\core\model</title>
<path fill="none" stroke="gray" d="M295,-358C295,-358 371,-358 371,-358 377,-358 383,-364 383,-370 383,-370 383,-472 383,-472 383,-478 377,-484 371,-484 371,-484 295,-484 295,-484 289,-484 283,-478 283,-472 283,-472 283,-370 283,-370 283,-364 289,-358 295,-358"/>
<text text-anchor="middle" x="333" y="-471.2" font-family="Times,serif" font-size="11.00" fill="gray">model</text>
</g>
<g id="clust9" class="cluster"><title>cluster_\s3c3\except</title>
<path fill="none" stroke="gray" d="M262,-840C262,-840 749,-840 749,-840 755,-840 761,-846 761,-852 761,-852 761,-1494 761,-1494 761,-1500 755,-1506 749,-1506 749,-1506 262,-1506 262,-1506 256,-1506 250,-1500 250,-1494 250,-1494 250,-852 250,-852 250,-846 256,-840 262,-840"/>
<text text-anchor="middle" x="505.5" y="-1493.2" font-family="Times,serif" font-size="11.00" fill="gray">except</text>
</g>
<g id="clust10" class="cluster"><title>cluster_\s3c3\listener</title>
<path fill="none" stroke="gray" d="M302,-760C302,-760 702,-760 702,-760 708,-760 714,-766 714,-772 714,-772 714,-820 714,-820 714,-826 708,-832 702,-832 702,-832 302,-832 302,-832 296,-832 290,-826 290,-820 290,-820 290,-772 290,-772 290,-766 296,-760 302,-760"/>
<text text-anchor="middle" x="502" y="-819.2" font-family="Times,serif" font-size="11.00" fill="gray">listener</text>
</g>
<g id="clust11" class="cluster"><title>cluster_\s3c3\util</title>
<path fill="none" stroke="gray" d="M586,-402C586,-402 724,-402 724,-402 730,-402 736,-408 736,-414 736,-414 736,-606 736,-606 736,-612 730,-618 724,-618 724,-618 586,-618 586,-618 580,-618 574,-612 574,-606 574,-606 574,-414 574,-414 574,-408 580,-402 586,-402"/>
<text text-anchor="middle" x="655" y="-605.2" font-family="Times,serif" font-size="11.00" fill="gray">util</text>
</g>
<g id="clust12" class="cluster"><title>cluster_\s3c3\util\logger</title>
<path fill="none" stroke="gray" d="M594,-410C594,-410 716,-410 716,-410 722,-410 728,-416 728,-422 728,-422 728,-578 728,-578 728,-584 722,-590 716,-590 716,-590 594,-590 594,-590 588,-590 582,-584 582,-578 582,-578 582,-422 582,-422 582,-416 588,-410 594,-410"/>
<text text-anchor="middle" x="655" y="-577.2" font-family="Times,serif" font-size="11.00" fill="gray">logger</text>
</g>
<g id="clust13" class="cluster"><title>cluster_\s3c3\bootstrap</title>
<path fill="none" stroke="gray" d="M614,-626C614,-626 696,-626 696,-626 702,-626 708,-632 708,-638 708,-638 708,-740 708,-740 708,-746 702,-752 696,-752 696,-752 614,-752 614,-752 608,-752 602,-746 602,-740 602,-740 602,-638 602,-638 602,-632 608,-626 614,-626"/>
<text text-anchor="middle" x="655" y="-739.2" font-family="Times,serif" font-size="11.00" fill="gray">bootstrap</text>
</g>
<g id="clust14" class="cluster"><title>cluster_\s3c3\example</title>
<path fill="none" stroke="gray" d="M611,-268C611,-268 699,-268 699,-268 705,-268 711,-274 711,-280 711,-280 711,-382 711,-382 711,-388 705,-394 699,-394 699,-394 611,-394 611,-394 605,-394 599,-388 599,-382 599,-382 599,-280 599,-280 599,-274 605,-268 611,-268"/>
<text text-anchor="middle" x="655" y="-381.2" font-family="Times,serif" font-size="11.00" fill="gray">example</text>
</g>
<!-- \\s3c3\\client\\Client -->
<g id="node1" class="node"><title>\\s3c3\\client\\Client</title>
<polygon fill="none" stroke="black" points="361,-1638 305,-1638 305,-1602 361,-1602 361,-1638"/>
<text text-anchor="middle" x="333" y="-1617.2" font-family="Courier,monospace" font-size="11.00">Client</text>
</g>
<!-- \\s3c3\\client\\LocalClient -->
<g id="node2" class="node"><title>\\s3c3\\client\\LocalClient</title>
<polygon fill="none" stroke="black" points="699.5,-1638 610.5,-1638 610.5,-1602 699.5,-1602 699.5,-1638"/>
<text text-anchor="middle" x="655" y="-1617.2" font-family="Courier,monospace" font-size="11.00">LocalClient</text>
</g>
<!-- \\s3c3\\client\\LocalClient&#45;&gt;\\s3c3\\client\\Client -->
<g id="edge1" class="edge"><title>\\s3c3\\client\\LocalClient&#45;&gt;\\s3c3\\client\\Client</title>
<path fill="none" stroke="black" d="M610.176,-1620C546.878,-1620 430.945,-1620 371.43,-1620"/>
<polygon fill="none" stroke="black" points="371.344,-1616.5 361.344,-1620 371.343,-1623.5 371.344,-1616.5"/>
</g>
<!-- \\s3c3\\conf\\Config -->
<g id="node3" class="node"><title>\\s3c3\\conf\\Config</title>
<polygon fill="none" stroke="black" points="683,-1558 627,-1558 627,-1522 683,-1522 683,-1558"/>
<text text-anchor="middle" x="655" y="-1537.2" font-family="Courier,monospace" font-size="11.00">Config</text>
</g>
<!-- \\s3c3\\core\\crypto\\Cert -->
<g id="node4" class="node"><title>\\s3c3\\core\\crypto\\Cert</title>
<polygon fill="none" stroke="black" points="360,-670 306,-670 306,-634 360,-634 360,-670"/>
<text text-anchor="middle" x="333" y="-649.2" font-family="Courier,monospace" font-size="11.00">Cert</text>
</g>
<!-- \\s3c3\\core\\crypto\\Crypto -->
<g id="node5" class="node"><title>\\s3c3\\core\\crypto\\Crypto</title>
<polygon fill="none" stroke="black" points="361,-616 305,-616 305,-580 361,-580 361,-616"/>
<text text-anchor="middle" x="333" y="-595.2" font-family="Courier,monospace" font-size="11.00">Crypto</text>
</g>
<!-- \\s3c3\\core\\db\\Database -->
<g id="node6" class="node"><title>\\s3c3\\core\\db\\Database</title>
<polygon fill="none" stroke="black" points="367.5,-536 298.5,-536 298.5,-500 367.5,-500 367.5,-536"/>
<text text-anchor="middle" x="333" y="-515.2" font-family="Courier,monospace" font-size="11.00">Database</text>
</g>
<!-- \\s3c3\\core\\model\\ConfigItem -->
<g id="node7" class="node"><title>\\s3c3\\core\\model\\ConfigItem</title>
<polygon fill="none" stroke="black" points="374.5,-456 291.5,-456 291.5,-420 374.5,-420 374.5,-456"/>
<text text-anchor="middle" x="333" y="-435.2" font-family="Courier,monospace" font-size="11.00">ConfigItem</text>
</g>
<!-- \\s3c3\\core\\Model -->
<g id="node9" class="node"><title>\\s3c3\\core\\Model</title>
<polygon fill="none" stroke="black" points="86,-429 32,-429 32,-393 86,-393 86,-429"/>
<text text-anchor="middle" x="59" y="-408.2" font-family="Courier,monospace" font-size="11.00">Model</text>
</g>
<!-- \\s3c3\\core\\model\\ConfigItem&#45;&gt;\\s3c3\\core\\Model -->
<g id="edge2" class="edge"><title>\\s3c3\\core\\model\\ConfigItem&#45;&gt;\\s3c3\\core\\Model</title>
<path fill="none" stroke="black" d="M291.279,-433.958C238.426,-428.711 146.99,-419.635 96.3647,-414.61"/>
<polygon fill="none" stroke="black" points="96.5066,-411.107 86.2097,-413.602 95.8151,-418.072 96.5066,-411.107"/>
</g>
<!-- \\s3c3\\core\\model\\Context -->
<g id="node8" class="node"><title>\\s3c3\\core\\model\\Context</title>
<polygon fill="none" stroke="black" points="364.5,-402 301.5,-402 301.5,-366 364.5,-366 364.5,-402"/>
<text text-anchor="middle" x="333" y="-381.2" font-family="Courier,monospace" font-size="11.00">Context</text>
</g>
<!-- \\s3c3\\core\\model\\Context&#45;&gt;\\s3c3\\core\\Model -->
<g id="edge3" class="edge"><title>\\s3c3\\core\\model\\Context&#45;&gt;\\s3c3\\core\\Model</title>
<path fill="none" stroke="black" d="M301.327,-387.045C250.789,-392.061 150.254,-402.041 96.2703,-407.4"/>
<polygon fill="none" stroke="black" points="95.7282,-403.936 86.1229,-408.407 96.4198,-410.902 95.7282,-403.936"/>
</g>
<!-- \\s3c3\\core\\Token -->
<g id="node10" class="node"><title>\\s3c3\\core\\Token</title>
<polygon fill="none" stroke="black" points="360,-348 306,-348 306,-312 360,-312 360,-348"/>
<text text-anchor="middle" x="333" y="-327.2" font-family="Courier,monospace" font-size="11.00">Token</text>
</g>
<!-- \\s3c3\\except\\ApplicationException -->
<g id="node11" class="node"><title>\\s3c3\\except\\ApplicationException</title>
<polygon fill="none" stroke="black" points="407.5,-1154 258.5,-1154 258.5,-1118 407.5,-1118 407.5,-1154"/>
<text text-anchor="middle" x="333" y="-1133.2" font-family="Courier,monospace" font-size="11.00">ApplicationException</text>
</g>
<!-- \\Exception -->
<g id="node36" class="node"><title>\\Exception</title>
<ellipse fill="none" stroke="black" cx="59" cy="-72" rx="50.0912" ry="18"/>
<text text-anchor="middle" x="59" y="-68.3" font-family="Times,serif" font-size="14.00" fill="gray">\Exception</text>
</g>
<!-- \\s3c3\\except\\ApplicationException&#45;&gt;\\Exception -->
<g id="edge4" class="edge"><title>\\s3c3\\except\\ApplicationException&#45;&gt;\\Exception</title>
<path fill="none" stroke="black" d="M320.19,-1117.96C291.163,-1072.67 216.143,-949.64 181,-836 109.987,-606.368 150.283,-536.79 109,-300 96.3391,-227.38 76.902,-142.729 66.7316,-99.8929"/>
<polygon fill="none" stroke="black" points="70.0812,-98.8504 64.3553,-89.9361 63.2724,-100.475 70.0812,-98.8504"/>
</g>
<!-- \\s3c3\\except\\ClassNotFoundException -->
<g id="node12" class="node"><title>\\s3c3\\except\\ClassNotFoundException</title>
<polygon fill="none" stroke="black" points="736,-1478 574,-1478 574,-1442 736,-1442 736,-1478"/>
<text text-anchor="middle" x="655" y="-1457.2" font-family="Courier,monospace" font-size="11.00">ClassNotFoundException</text>
</g>
<!-- \\s3c3\\except\\ClassNotFoundException&#45;&gt;\\s3c3\\except\\ApplicationException -->
<g id="edge5" class="edge"><title>\\s3c3\\except\\ClassNotFoundException&#45;&gt;\\s3c3\\except\\ApplicationException</title>
<path fill="none" stroke="black" d="M573.729,-1442.31C567.85,-1439.63 562.197,-1436.55 557,-1433 451.326,-1360.84 375.48,-1222.08 346.72,-1163.34"/>
<polygon fill="none" stroke="black" points="349.856,-1161.78 342.358,-1154.3 343.551,-1164.82 349.856,-1161.78"/>
</g>
<!-- \\s3c3\\except\\ConfigurationException -->
<g id="node13" class="node"><title>\\s3c3\\except\\ConfigurationException</title>
<polygon fill="none" stroke="black" points="736,-1424 574,-1424 574,-1388 736,-1388 736,-1424"/>
<text text-anchor="middle" x="655" y="-1403.2" font-family="Courier,monospace" font-size="11.00">ConfigurationException</text>
</g>
<!-- \\s3c3\\except\\ConfigurationException&#45;&gt;\\s3c3\\except\\ApplicationException -->
<g id="edge6" class="edge"><title>\\s3c3\\except\\ConfigurationException&#45;&gt;\\s3c3\\except\\ApplicationException</title>
<path fill="none" stroke="black" d="M574.6,-1387.95C568.461,-1385.35 562.514,-1382.38 557,-1379 463.016,-1321.39 384.273,-1213 351,-1162.79"/>
<polygon fill="none" stroke="black" points="353.728,-1160.57 345.323,-1154.12 347.871,-1164.4 353.728,-1160.57"/>
</g>
<!-- \\s3c3\\except\\DatabaseException -->
<g id="node14" class="node"><title>\\s3c3\\except\\DatabaseException</title>
<polygon fill="none" stroke="black" points="719.5,-1370 590.5,-1370 590.5,-1334 719.5,-1334 719.5,-1370"/>
<text text-anchor="middle" x="655" y="-1349.2" font-family="Courier,monospace" font-size="11.00">DatabaseException</text>
</g>
<!-- \\s3c3\\except\\DatabaseException&#45;&gt;\\s3c3\\except\\ApplicationException -->
<g id="edge7" class="edge"><title>\\s3c3\\except\\DatabaseException&#45;&gt;\\s3c3\\except\\ApplicationException</title>
<path fill="none" stroke="black" d="M590.377,-1338.55C578.925,-1334.95 567.349,-1330.48 557,-1325 474.18,-1281.11 394.794,-1202.18 356.992,-1161.61"/>
<polygon fill="none" stroke="black" points="359.351,-1159.01 349.998,-1154.03 354.207,-1163.75 359.351,-1159.01"/>
</g>
<!-- \\s3c3\\except\\ErrorException -->
<g id="node15" class="node"><title>\\s3c3\\except\\ErrorException</title>
<polygon fill="none" stroke="black" points="709.5,-1316 600.5,-1316 600.5,-1280 709.5,-1280 709.5,-1316"/>
<text text-anchor="middle" x="655" y="-1295.2" font-family="Courier,monospace" font-size="11.00">ErrorException</text>
</g>
<!-- \\s3c3\\except\\ErrorException&#45;&gt;\\s3c3\\except\\ApplicationException -->
<g id="edge8" class="edge"><title>\\s3c3\\except\\ErrorException&#45;&gt;\\s3c3\\except\\ApplicationException</title>
<path fill="none" stroke="black" d="M600.489,-1285.91C586.095,-1281.91 570.719,-1276.93 557,-1271 485.487,-1240.09 409.318,-1189.71 367.089,-1160.02"/>
<polygon fill="none" stroke="black" points="369.041,-1157.11 358.857,-1154.19 364.996,-1162.83 369.041,-1157.11"/>
</g>
<!-- \\s3c3\\except\\InvalidArgumentException -->
<g id="node16" class="node"><title>\\s3c3\\except\\InvalidArgumentException</title>
<polygon fill="none" stroke="black" points="742.5,-1262 567.5,-1262 567.5,-1226 742.5,-1226 742.5,-1262"/>
<text text-anchor="middle" x="655" y="-1241.2" font-family="Courier,monospace" font-size="11.00">InvalidArgumentException</text>
</g>
<!-- \\s3c3\\except\\InvalidArgumentException&#45;&gt;\\s3c3\\except\\ApplicationException -->
<g id="edge9" class="edge"><title>\\s3c3\\except\\InvalidArgumentException&#45;&gt;\\s3c3\\except\\ApplicationException</title>
<path fill="none" stroke="black" d="M586.487,-1225.93C576.561,-1223.06 566.489,-1220.04 557,-1217 499.623,-1198.62 435.013,-1174.8 390.167,-1157.76"/>
<polygon fill="none" stroke="black" points="391.215,-1154.41 380.624,-1154.12 388.722,-1160.96 391.215,-1154.41"/>
</g>
<!-- \\s3c3\\except\\InvalidCertificateException -->
<g id="node17" class="node"><title>\\s3c3\\except\\InvalidCertificateException</title>
<polygon fill="none" stroke="black" points="752.5,-1208 557.5,-1208 557.5,-1172 752.5,-1172 752.5,-1208"/>
<text text-anchor="middle" x="655" y="-1187.2" font-family="Courier,monospace" font-size="11.00">InvalidCertificateException</text>
</g>
<!-- \\s3c3\\except\\InvalidCertificateException&#45;&gt;\\s3c3\\except\\ApplicationException -->
<g id="edge10" class="edge"><title>\\s3c3\\except\\InvalidCertificateException&#45;&gt;\\s3c3\\except\\ApplicationException</title>
<path fill="none" stroke="black" d="M557.121,-1173.65C512.673,-1166.15 460.484,-1157.34 417.76,-1150.13"/>
<polygon fill="none" stroke="black" points="418.12,-1146.65 407.676,-1148.43 416.955,-1153.55 418.12,-1146.65"/>
</g>
<!-- \\s3c3\\except\\InvalidUsageException -->
<g id="node18" class="node"><title>\\s3c3\\except\\InvalidUsageException</title>
<polygon fill="none" stroke="black" points="732.5,-1154 577.5,-1154 577.5,-1118 732.5,-1118 732.5,-1154"/>
<text text-anchor="middle" x="655" y="-1133.2" font-family="Courier,monospace" font-size="11.00">InvalidUsageException</text>
</g>
<!-- \\s3c3\\except\\InvalidUsageException&#45;&gt;\\s3c3\\except\\ApplicationException -->
<g id="edge11" class="edge"><title>\\s3c3\\except\\InvalidUsageException&#45;&gt;\\s3c3\\except\\ApplicationException</title>
<path fill="none" stroke="black" d="M577.352,-1136C529.176,-1136 467.013,-1136 417.574,-1136"/>
<polygon fill="none" stroke="black" points="417.545,-1132.5 407.545,-1136 417.545,-1139.5 417.545,-1132.5"/>
</g>
<!-- \\s3c3\\except\\ObjectNotFoundException -->
<g id="node19" class="node"><title>\\s3c3\\except\\ObjectNotFoundException</title>
<polygon fill="none" stroke="black" points="739,-1100 571,-1100 571,-1064 739,-1064 739,-1100"/>
<text text-anchor="middle" x="655" y="-1079.2" font-family="Courier,monospace" font-size="11.00">ObjectNotFoundException</text>
</g>
<!-- \\s3c3\\except\\ObjectNotFoundException&#45;&gt;\\s3c3\\except\\ApplicationException -->
<g id="edge12" class="edge"><title>\\s3c3\\except\\ObjectNotFoundException&#45;&gt;\\s3c3\\except\\ApplicationException</title>
<path fill="none" stroke="black" d="M570.759,-1096.05C523.561,-1104.01 464.684,-1113.95 417.451,-1121.92"/>
<polygon fill="none" stroke="black" points="416.835,-1118.47 407.557,-1123.59 418,-1125.37 416.835,-1118.47"/>
</g>
<!-- \\s3c3\\except\\PropertyNotFoundException -->
<g id="node20" class="node"><title>\\s3c3\\except\\PropertyNotFoundException</title>
<polygon fill="none" stroke="black" points="746,-1046 564,-1046 564,-1010 746,-1010 746,-1046"/>
<text text-anchor="middle" x="655" y="-1025.2" font-family="Courier,monospace" font-size="11.00">PropertyNotFoundException</text>
</g>
<!-- \\s3c3\\except\\PropertyNotFoundException&#45;&gt;\\s3c3\\except\\ApplicationException -->
<g id="edge13" class="edge"><title>\\s3c3\\except\\PropertyNotFoundException&#45;&gt;\\s3c3\\except\\ApplicationException</title>
<path fill="none" stroke="black" d="M586.487,-1046.07C576.561,-1048.94 566.489,-1051.96 557,-1055 499.623,-1073.38 435.013,-1097.2 390.167,-1114.24"/>
<polygon fill="none" stroke="black" points="388.722,-1111.04 380.624,-1117.88 391.215,-1117.59 388.722,-1111.04"/>
</g>
<!-- \\s3c3\\except\\RuntimeException -->
<g id="node21" class="node"><title>\\s3c3\\except\\RuntimeException</title>
<polygon fill="none" stroke="black" points="716,-992 594,-992 594,-956 716,-956 716,-992"/>
<text text-anchor="middle" x="655" y="-971.2" font-family="Courier,monospace" font-size="11.00">RuntimeException</text>
</g>
<!-- \\s3c3\\except\\RuntimeException&#45;&gt;\\s3c3\\except\\ApplicationException -->
<g id="edge14" class="edge"><title>\\s3c3\\except\\RuntimeException&#45;&gt;\\s3c3\\except\\ApplicationException</title>
<path fill="none" stroke="black" d="M593.865,-987.981C581.457,-991.627 568.633,-995.972 557,-1001 485.487,-1031.91 409.318,-1082.29 367.089,-1111.98"/>
<polygon fill="none" stroke="black" points="364.996,-1109.17 358.857,-1117.81 369.041,-1114.89 364.996,-1109.17"/>
</g>
<!-- \\s3c3\\except\\SchemeNameException -->
<g id="node22" class="node"><title>\\s3c3\\except\\SchemeNameException</title>
<polygon fill="none" stroke="black" points="726,-938 584,-938 584,-902 726,-902 726,-938"/>
<text text-anchor="middle" x="655" y="-917.2" font-family="Courier,monospace" font-size="11.00">SchemeNameException</text>
</g>
<!-- \\s3c3\\except\\SchemeNameException&#45;&gt;\\s3c3\\except\\ApplicationException -->
<g id="edge15" class="edge"><title>\\s3c3\\except\\SchemeNameException&#45;&gt;\\s3c3\\except\\ApplicationException</title>
<path fill="none" stroke="black" d="M583.963,-935.559C574.648,-938.754 565.418,-942.539 557,-947 474.18,-990.885 394.794,-1069.82 356.992,-1110.39"/>
<polygon fill="none" stroke="black" points="354.207,-1108.25 349.998,-1117.97 359.351,-1112.99 354.207,-1108.25"/>
</g>
<!-- \\s3c3\\except\\SecurityViolationException -->
<g id="node23" class="node"><title>\\s3c3\\except\\SecurityViolationException</title>
<polygon fill="none" stroke="black" points="749,-884 561,-884 561,-848 749,-848 749,-884"/>
<text text-anchor="middle" x="655" y="-863.2" font-family="Courier,monospace" font-size="11.00">SecurityViolationException</text>
</g>
<!-- \\s3c3\\except\\SecurityViolationException&#45;&gt;\\s3c3\\except\\ApplicationException -->
<g id="edge16" class="edge"><title>\\s3c3\\except\\SecurityViolationException&#45;&gt;\\s3c3\\except\\ApplicationException</title>
<path fill="none" stroke="black" d="M574.6,-884.05C568.461,-886.653 562.514,-889.62 557,-893 463.016,-950.607 384.273,-1059 351,-1109.21"/>
<polygon fill="none" stroke="black" points="347.871,-1107.6 345.323,-1117.88 353.728,-1111.43 347.871,-1107.6"/>
</g>
<!-- \\s3c3\\listener\\Listener -->
<g id="node24" class="node"><title>\\s3c3\\listener\\Listener</title>
<polygon fill="none" stroke="black" points="367.5,-804 298.5,-804 298.5,-768 367.5,-768 367.5,-804"/>
<text text-anchor="middle" x="333" y="-783.2" font-family="Courier,monospace" font-size="11.00">Listener</text>
</g>
<!-- \\s3c3\\listener\\LocalListener -->
<g id="node25" class="node"><title>\\s3c3\\listener\\LocalListener</title>
<polygon fill="none" stroke="black" points="706,-804 604,-804 604,-768 706,-768 706,-804"/>
<text text-anchor="middle" x="655" y="-783.2" font-family="Courier,monospace" font-size="11.00">LocalListener</text>
</g>
<!-- \\s3c3\\listener\\LocalListener&#45;&gt;\\s3c3\\listener\\Listener -->
<g id="edge17" class="edge"><title>\\s3c3\\listener\\LocalListener&#45;&gt;\\s3c3\\listener\\Listener</title>
<path fill="none" stroke="black" d="M603.648,-786C541.549,-786 436.992,-786 377.979,-786"/>
<polygon fill="none" stroke="black" points="377.861,-782.5 367.861,-786 377.861,-789.5 377.861,-782.5"/>
</g>
<!-- \\s3c3\\util\\logger\\LogFileHandler -->
<g id="node26" class="node"><title>\\s3c3\\util\\logger\\LogFileHandler</title>
<polygon fill="none" stroke="black" points="709.5,-562 600.5,-562 600.5,-526 709.5,-526 709.5,-562"/>
<text text-anchor="middle" x="655" y="-541.2" font-family="Courier,monospace" font-size="11.00">LogFileHandler</text>
</g>
<!-- \\Monolog\\Handler\\StreamHandler -->
<g id="node37" class="node"><title>\\Monolog\\Handler\\StreamHandler</title>
<ellipse fill="none" stroke="black" cx="333" cy="-72" rx="135.676" ry="18"/>
<text text-anchor="middle" x="333" y="-68.3" font-family="Times,serif" font-size="14.00" fill="gray">\Monolog\Handler\StreamHandler</text>
</g>
<!-- \\s3c3\\util\\logger\\LogFileHandler&#45;&gt;\\Monolog\\Handler\\StreamHandler -->
<g id="edge18" class="edge"><title>\\s3c3\\util\\logger\\LogFileHandler&#45;&gt;\\Monolog\\Handler\\StreamHandler</title>
<path fill="none" stroke="black" d="M600.422,-538.736C584.793,-534.84 568.773,-528.211 557,-517 483.413,-446.925 529.442,-391.381 485,-300 447.004,-221.874 386.178,-138.946 354.571,-97.9961"/>
<polygon fill="none" stroke="black" points="357.189,-95.6604 348.289,-89.9119 351.661,-99.9556 357.189,-95.6604"/>
</g>
<!-- \\s3c3\\util\\logger\\LogMailHandler -->
<g id="node27" class="node"><title>\\s3c3\\util\\logger\\LogMailHandler</title>
<polygon fill="none" stroke="black" points="709.5,-508 600.5,-508 600.5,-472 709.5,-472 709.5,-508"/>
<text text-anchor="middle" x="655" y="-487.2" font-family="Courier,monospace" font-size="11.00">LogMailHandler</text>
</g>
<!-- \\Monolog\\Handler\\NativeMailHandler -->
<g id="node38" class="node"><title>\\Monolog\\Handler\\NativeMailHandler</title>
<ellipse fill="none" stroke="black" cx="333" cy="-18" rx="151.373" ry="18"/>
<text text-anchor="middle" x="333" y="-14.3" font-family="Times,serif" font-size="14.00" fill="gray">\Monolog\Handler\NativeMailHandler</text>
</g>
<!-- \\s3c3\\util\\logger\\LogMailHandler&#45;&gt;\\Monolog\\Handler\\NativeMailHandler -->
<g id="edge19" class="edge"><title>\\s3c3\\util\\logger\\LogMailHandler&#45;&gt;\\Monolog\\Handler\\NativeMailHandler</title>
<path fill="none" stroke="black" d="M600.373,-486.013C584.364,-482.214 568.135,-475.32 557,-463 430.593,-323.148 617.874,-178.723 485,-45 480.319,-40.2891 475.117,-36.2398 469.54,-32.7679"/>
<polygon fill="none" stroke="black" points="470.936,-29.5405 460.489,-27.7752 467.555,-35.6699 470.936,-29.5405"/>
</g>
<!-- \\s3c3\\util\\logger\\LogMailSmsHandler -->
<g id="node28" class="node"><title>\\s3c3\\util\\logger\\LogMailSmsHandler</title>
<polygon fill="none" stroke="black" points="719.5,-454 590.5,-454 590.5,-418 719.5,-418 719.5,-454"/>
<text text-anchor="middle" x="655" y="-433.2" font-family="Courier,monospace" font-size="11.00">LogMailSmsHandler</text>
</g>
<!-- \\s3c3\\util\\logger\\LogMailSmsHandler&#45;&gt;\\Monolog\\Handler\\NativeMailHandler -->
<g id="edge20" class="edge"><title>\\s3c3\\util\\logger\\LogMailSmsHandler&#45;&gt;\\Monolog\\Handler\\NativeMailHandler</title>
<path fill="none" stroke="black" d="M590.443,-421.551C577.832,-416.042 565.79,-408.45 557,-398 453.933,-275.463 599.587,-156.839 485,-45 480.07,-40.1884 474.595,-36.0735 468.735,-32.5637"/>
<polygon fill="none" stroke="black" points="470.362,-29.4651 459.892,-27.8435 467.066,-35.6403 470.362,-29.4651"/>
</g>
<!-- \\s3c3\\bootstrap\\Bootstrap -->
<g id="node29" class="node"><title>\\s3c3\\bootstrap\\Bootstrap</title>
<polygon fill="none" stroke="black" points="693,-724 617,-724 617,-688 693,-688 693,-724"/>
<text text-anchor="middle" x="655" y="-703.2" font-family="Courier,monospace" font-size="11.00">Bootstrap</text>
</g>
<!-- \\s3c3\\bootstrap\\CertHandler -->
<g id="node30" class="node"><title>\\s3c3\\bootstrap\\CertHandler</title>
<polygon fill="none" stroke="black" points="699.5,-670 610.5,-670 610.5,-634 699.5,-634 699.5,-670"/>
<text text-anchor="middle" x="655" y="-649.2" font-family="Courier,monospace" font-size="11.00">CertHandler</text>
</g>
<!-- \\s3c3\\bootstrap\\CertHandler&#45;&gt;\\s3c3\\core\\crypto\\Cert -->
<g id="edge21" class="edge"><title>\\s3c3\\bootstrap\\CertHandler&#45;&gt;\\s3c3\\core\\crypto\\Cert</title>
<path fill="none" stroke="black" d="M610.176,-652C546.525,-652 429.653,-652 370.441,-652"/>
<polygon fill="none" stroke="black" points="370.082,-648.5 360.082,-652 370.082,-655.5 370.082,-648.5"/>
</g>
<!-- \\s3c3\\example\\ClientShim -->
<g id="node31" class="node"><title>\\s3c3\\example\\ClientShim</title>
<polygon fill="none" stroke="black" points="696.5,-366 613.5,-366 613.5,-330 696.5,-330 696.5,-366"/>
<text text-anchor="middle" x="655" y="-345.2" font-family="Courier,monospace" font-size="11.00">ClientShim</text>
</g>
<!-- \\s3c3\\example\\ListenerShim -->
<g id="node32" class="node"><title>\\s3c3\\example\\ListenerShim</title>
<polygon fill="none" stroke="black" points="703,-312 607,-312 607,-276 703,-276 703,-312"/>
<text text-anchor="middle" x="655" y="-291.2" font-family="Courier,monospace" font-size="11.00">ListenerShim</text>
</g>
<!-- \\s3c3\\ClassLoader -->
<g id="node33" class="node"><title>\\s3c3\\ClassLoader</title>
<polygon fill="none" stroke="black" points="699.5,-258 610.5,-258 610.5,-222 699.5,-222 699.5,-258"/>
<text text-anchor="middle" x="655" y="-237.2" font-family="Courier,monospace" font-size="11.00">ClassLoader</text>
</g>
<!-- \\s3c3\\ErrorHandler -->
<g id="node34" class="node"><title>\\s3c3\\ErrorHandler</title>
<polygon fill="none" stroke="black" points="703,-204 607,-204 607,-168 703,-168 703,-204"/>
<text text-anchor="middle" x="655" y="-183.2" font-family="Courier,monospace" font-size="11.00">ErrorHandler</text>
</g>
<!-- \\s3c3\\LoggerManager -->
<g id="node35" class="node"><title>\\s3c3\\LoggerManager</title>
<polygon fill="none" stroke="black" points="706,-150 604,-150 604,-114 706,-114 706,-150"/>
<text text-anchor="middle" x="655" y="-129.2" font-family="Courier,monospace" font-size="11.00">LoggerManager</text>
</g>
</g>
</svg>
